<?xml version="1.0" encoding="UTF-8" standalone="no"?>
<svg
		version="1.1"
		width="256"
		height="256"
		viewBox="0 0 256 256"
		xml:space="preserve"
		id="svg2"
		sodipodi:docname="coin-2159.svg"
		inkscape:export-filename="coin.png"
		inkscape:export-xdpi="12"
		inkscape:export-ydpi="12"
		inkscape:version="1.4.2 (ebf0e940d0, 2025-05-08)"
		xmlns:inkscape="http://www.inkscape.org/namespaces/inkscape"
		xmlns:sodipodi="http://sodipodi.sourceforge.net/DTD/sodipodi-0.dtd"
		xmlns="http://www.w3.org/2000/svg"
><defs
   id="defs2" /><sodipodi:namedview
   id="namedview2"
   pagecolor="#ffffff"
   bordercolor="#000000"
   borderopacity="0.25"
   inkscape:showpageshadow="2"
   inkscape:pageopacity="0.0"
   inkscape:pagecheckerboard="0"
   inkscape:deskcolor="#d1d1d1"
   inkscape:zoom="7.1796875"
   inkscape:cx="127.93036"
   inkscape:cy="128"
   inkscape:window-width="3840"
   inkscape:window-height="2091"
   inkscape:window-x="0"
   inkscape:window-y="0"
   inkscape:window-maximized="1"
   inkscape:current-layer="svg2" />
<g
   style="stroke: none; stroke-width: 0; stroke-dasharray: none; stroke-linecap: butt; stroke-linejoin: miter; stroke-miterlimit: 10; fill: none; fill-rule: nonzero; opacity: 1;"
   transform="translate(1.4065934065934016 1.4065934065934016) scale(2.81 2.81)"
   id="g2">
	<circle
   cx="45"
   cy="45"
   r="45"
   style="stroke: none; stroke-width: 1; stroke-dasharray: none; stroke-linecap: butt; stroke-linejoin: miter; stroke-miterlimit: 10; fill: rgb(255,200,67); fill-rule: nonzero; opacity: 1;"
   transform="  matrix(1 0 0 1 0 0) "
   id="circle1" />
	<circle
   cx="45"
   cy="45"
   r="35"
   style="stroke: none; stroke-width: 1; stroke-dasharray: none; stroke-linecap: butt; stroke-linejoin: miter; stroke-miterlimit: 10; fill: rgb(211,135,0); fill-rule: nonzero; opacity: 1;"
   transform="  matrix(1 0 0 1 0 0) "
   id="circle2" />
	<path
   d="M 46.524 26.367 l 5.019 10.169 c 0.248 0.501 0.726 0.849 1.279 0.93 l 11.222 1.631 c 1.394 0.203 1.95 1.915 0.942 2.898 l -8.12 7.915 c -0.4 0.39 -0.583 0.953 -0.489 1.504 l 1.917 11.176 c 0.238 1.388 -1.219 2.447 -2.465 1.791 l -10.037 -5.277 c -0.495 -0.26 -1.086 -0.26 -1.581 0 l -10.037 5.277 c -1.247 0.655 -2.703 -0.403 -2.465 -1.791 l 1.917 -11.176 c 0.095 -0.551 -0.088 -1.114 -0.489 -1.504 l -8.12 -7.915 c -1.008 -0.983 -0.452 -2.696 0.942 -2.898 l 11.222 -1.631 c 0.553 -0.08 1.032 -0.428 1.279 -0.93 l 5.019 -10.169 C 44.1 25.104 45.9 25.104 46.524 26.367 z"
   style="stroke: none; stroke-width: 1; stroke-dasharray: none; stroke-linecap: butt; stroke-linejoin: miter; stroke-miterlimit: 10; fill: rgb(255,200,67); fill-rule: nonzero; opacity: 1;"
   transform=" matrix(1 0 0 1 0 0) "
   stroke-linecap="round"
   id="path2" />
</g>
</svg>
